name ./resultDataOpenSim/trcMotMarkerGrf/sub09/grf-01-01.mot
datacolumns 19
datarows 10
range 0.97600000 1.01200000
endheader

                time	     ground_force_vx	     ground_force_vy	     ground_force_vz	     ground_force_px	     ground_force_py	     ground_force_pz	   l_ground_force_vx	   l_ground_force_vy	   l_ground_force_vz	   l_ground_force_px	   l_ground_force_py	   l_ground_force_pz	     ground_torque_x	     ground_torque_y	     ground_torque_z	   l_ground_torque_x	   l_ground_torque_y	   l_ground_torque_z	
          0.97600000	          0.00000000	          0.00000000	          0.00000000	          0.00000000	          0.00000000	          0.00000000	          7.41480993	        500.99466675	         19.82852603	          0.14578541	          0.00000000	          0.02737254	          0.00000000	          0.00000000	          0.00000000	          0.00000000	         -2.19188716	          0.00000000	
          0.98000000	          0.00000000	          0.00000000	          0.00000000	          0.00000000	          0.00000000	          0.00000000	         10.13676660	        503.34533863	         20.02008999	          0.14604212	          0.00000000	          0.02738850	          0.00000000	          0.00000000	          0.00000000	          0.00000000	         -2.38718952	          0.00000000	
          0.98400000	          0.00000000	          0.00000000	          0.00000000	          0.00000000	          0.00000000	          0.00000000	         13.06722321	        505.47433457	         20.26585430	          0.14631379	          0.00000000	          0.02742156	          0.00000000	          0.00000000	          0.00000000	          0.00000000	         -2.58149616	          0.00000000	
          0.98800000	          0.00000000	          0.00000000	          0.00000000	          0.00000000	          0.00000000	          0.00000000	         16.17900810	        507.37582348	         20.55725415	          0.14661967	          0.00000000	          0.02749127	          0.00000000	          0.00000000	          0.00000000	          0.00000000	         -2.77996608	          0.00000000	
          0.99200000	          0.00000000	          0.00000000	          0.00000000	          0.00000000	          0.00000000	          0.00000000	         19.47256486	        509.06542578	         20.86470019	          0.14697726	          0.00000000	          0.02760346	          0.00000000	          0.00000000	          0.00000000	          0.00000000	         -2.99006703	          0.00000000	
          0.99600000	          0.00000000	          0.00000000	          0.00000000	          0.00000000	          0.00000000	          0.00000000	         22.95902121	        510.61209534	         21.12949679	          0.14738430	          0.00000000	          0.02775025	          0.00000000	          0.00000000	          0.00000000	          0.00000000	         -3.22045679	          0.00000000	
          1.00000000	          0.00000000	          0.00000000	          0.00000000	          0.00000000	          0.00000000	          0.00000000	         26.66071143	        512.13110979	         21.27465886	          0.14782767	          0.00000000	          0.02791896	          0.00000000	          0.00000000	          0.00000000	          0.00000000	         -3.47917037	          0.00000000	
          1.00400000	          0.00000000	          0.00000000	          0.00000000	          0.00000000	          0.00000000	          0.00000000	         30.60101055	        513.74466344	         21.23580683	          0.14828741	          0.00000000	          0.02809847	          0.00000000	          0.00000000	          0.00000000	          0.00000000	         -3.77157418	          0.00000000	
          1.00800000	          0.00000000	          0.00000000	          0.00000000	          0.00000000	          0.00000000	          0.00000000	         34.78209553	        515.56476162	         20.98677371	          0.14875246	          0.00000000	          0.02828707	          0.00000000	          0.00000000	          0.00000000	          0.00000000	         -4.09877170	          0.00000000	
          1.01200000	          0.00000000	          0.00000000	          0.00000000	          0.00000000	          0.00000000	          0.00000000	         39.18573480	        517.71713720	         20.54290947	          0.14921925	          0.00000000	          0.02848105	          0.00000000	          0.00000000	          0.00000000	          0.00000000	         -4.45701445	          0.00000000	
